<?xml version="1.0" encoding="UTF-8"?>
<svg height="600" width="800" xmlns="http://www.w3.org/2000/svg" xmlns:xlink="http://www.w3.org/1999/xlink">
    <g id="Notes" font-family="'LucidaGrande', 'Lucida Grande', sans-serif" font-size="13">
        <rect fill="white" height="600.0" width="800.0" x="0.0" y="0.0" />
        <g font-size="13">
            <text x="18.0" y="176.0">Small</text>
            <text x="18.0" y="376.0">Medium</text>
            <text x="18.0" y="576.0">Large</text>
        </g>
        <g font-size="9">
            <text x="250.0" y="30.0">Ultralight</text>
            <text x="450.0" y="30.0">Regular</text>
            <text x="650.0" y="30.0">Black</text>
            <text id="template-version" fill="#505050" text-anchor="end" x="785.0" y="575.0">Template v.3.0</text>
            <a href="https://github.com/swhitty/SwiftDraw">
                <text fill="#505050" text-anchor="end" x="785.0" y="590.0">https://github.com/swhitty/SwiftDraw</text>
            </a>
        </g>
    </g>
    <g id="Guides" stroke="rgb(39, 170, 225)" stroke-width="0.5">
        <path id="Capline-S" d="M18,76 l800,0" />
        <path id="H-reference" d="M85,145.755 L87.685,145.755 L113.369,79.287 L114.052,79.287 L114.052,76 L112.148,76 L85,145.755 Z M95.693,121.536 L130.996,121.536 L130.263,119.313 L96.474,119.313 L95.693,121.536 Z M139.15,145.755 L141.787,145.755 L114.638,76 L113.466,76 L113.466,79.287 L139.15,145.755 Z" stroke="none" />
        <path id="Baseline-S" d="M18,146 l800,0" />
        <path id="left-margin-Ultralight-S" d="M221,56 l0,110" />
        <path id="right-margin-Ultralight-S" d="M309,56 l0,110" />
        <path id="left-margin-Regular-S" d="M421,56 l0,110" />
        <path id="right-margin-Regular-S" d="M509,56 l0,110" />
        <path id="left-margin-Black-S" d="M621,56 l0,110" />
        <path id="right-margin-Black-S" d="M709,56 l0,110" />
        <path id="Capline-M" d="M18,276 l800,0" />
        <path id="Baseline-M" d="M18,346 l800,0" />
        <path id="Capline-L" d="M18,476 l800,0" />
        <path id="Baseline-L" d="M18,546 l800,0" />
    </g>
    <g id="Symbols">
        <g id="Ultralight-S">
            <path d="M262.867,76.066 C246.61,77.08 233.246,90.101 231.854,106.33 C231.032,115.879 234.246,124.665 239.982,131.2 C241.353,132.765 243.946,131.786 243.946,129.708 L243.946,109.794 C243.946,99.594 252.153,89.659 262.274,88.387 C275.71,86.701 287.059,97.694 285.974,111.029 C285.088,121.965 275.588,130.265 264.624,130.322 C245.282,130.422 243.953,136.55 243.953,139.857 L243.946,141.9 L243.946,144.179 C243.946,145.25 244.832,146 245.76,146 L245.768,146 C246.153,146 246.546,145.871 246.882,145.579 C251.275,141.793 256.896,142.086 260.739,142.379 C262.053,142.479 263.16,142.579 263.939,142.522 L263.974,142.514 C264.317,142.522 264.66,142.543 265.003,142.543 C283.374,142.543 298.273,127.65 298.273,109.272 C298.266,90.194 282.21,74.866 262.867,76.066 Z" />
            <path d="M264.996,119.144 C270.446,119.144 274.867,114.722 274.867,109.272 C274.867,103.822 270.446,99.401 264.996,99.401 C259.546,99.401 255.124,103.822 255.124,109.272 C255.124,114.722 259.546,119.144 264.996,119.144 Z" />
        </g>
        <g id="Regular-S">
            <path d="M462.867,76.066 C446.61,77.08 433.246,90.101 431.854,106.33 C431.032,115.879 434.246,124.665 439.982,131.2 C441.353,132.765 443.946,131.786 443.946,129.708 L443.946,109.794 C443.946,99.594 452.153,89.659 462.274,88.387 C475.71,86.701 487.059,97.694 485.974,111.029 C485.088,121.965 475.588,130.265 464.624,130.322 C445.282,130.422 443.953,136.55 443.953,139.857 L443.946,141.9 L443.946,144.179 C443.946,145.25 444.832,146 445.76,146 L445.768,146 C446.153,146 446.546,145.871 446.882,145.579 C451.275,141.793 456.896,142.086 460.739,142.379 C462.053,142.479 463.16,142.579 463.939,142.522 L463.974,142.514 C464.317,142.522 464.66,142.543 465.003,142.543 C483.374,142.543 498.273,127.65 498.273,109.272 C498.266,90.194 482.21,74.866 462.867,76.066 Z" />
            <path d="M464.996,119.144 C470.446,119.144 474.867,114.722 474.867,109.272 C474.867,103.822 470.446,99.401 464.996,99.401 C459.546,99.401 455.124,103.822 455.124,109.272 C455.124,114.722 459.546,119.144 464.996,119.144 Z" />
        </g>
        <g id="Black-S">
            <path d="M662.867,76.066 C646.61,77.08 633.246,90.101 631.854,106.33 C631.032,115.879 634.246,124.665 639.982,131.2 C641.353,132.765 643.946,131.786 643.946,129.708 L643.946,109.794 C643.946,99.594 652.153,89.659 662.274,88.387 C675.71,86.701 687.059,97.694 685.974,111.029 C685.088,121.965 675.588,130.265 664.624,130.322 C645.282,130.422 643.953,136.55 643.953,139.857 L643.946,141.9 L643.946,144.179 C643.946,145.25 644.832,146 645.76,146 L645.768,146 C646.153,146 646.546,145.871 646.882,145.579 C651.275,141.793 656.896,142.086 660.739,142.379 C662.053,142.479 663.16,142.579 663.939,142.522 L663.974,142.514 C664.317,142.522 664.66,142.543 665.003,142.543 C683.374,142.543 698.273,127.65 698.273,109.272 C698.266,90.194 682.21,74.866 662.867,76.066 Z" />
            <path d="M664.996,119.144 C670.446,119.144 674.867,114.722 674.867,109.272 C674.867,103.822 670.446,99.401 664.996,99.401 C659.546,99.401 655.124,103.822 655.124,109.272 C655.124,114.722 659.546,119.144 664.996,119.144 Z" />
        </g>
    </g>
</svg>