<?xml version="1.0" encoding="UTF-8"?>
<svg height="600" width="800" xmlns="http://www.w3.org/2000/svg" xmlns:xlink="http://www.w3.org/1999/xlink">
    <g id="Notes" font-family="'LucidaGrande', 'Lucida Grande', sans-serif" font-size="13">
        <rect fill="white" height="600.0" width="800.0" x="0.0" y="0.0" />
        <g font-size="13">
            <text x="18.0" y="176.0">Small</text>
            <text x="18.0" y="376.0">Medium</text>
            <text x="18.0" y="576.0">Large</text>
        </g>
        <g font-size="9">
            <text x="250.0" y="30.0">Ultralight</text>
            <text x="450.0" y="30.0">Regular</text>
            <text x="650.0" y="30.0">Black</text>
            <text id="template-version" fill="#505050" text-anchor="end" x="785.0" y="575.0">Template v.3.0</text>
            <a href="https://github.com/swhitty/SwiftDraw">
                <text fill="#505050" text-anchor="end" x="785.0" y="590.0">https://github.com/swhitty/SwiftDraw</text>
            </a>
        </g>
    </g>
    <g id="Guides" stroke="rgb(39, 170, 225)" stroke-width="0.5">
        <path id="Capline-S" d="M18,76 l800,0" />
        <path id="H-reference" d="M85,145.755 L87.685,145.755 L113.369,79.287 L114.052,79.287 L114.052,76 L112.148,76 L85,145.755 Z M95.693,121.536 L130.996,121.536 L130.263,119.313 L96.474,119.313 L95.693,121.536 Z M139.15,145.755 L141.787,145.755 L114.638,76 L113.466,76 L113.466,79.287 L139.15,145.755 Z" stroke="none" />
        <path id="Baseline-S" d="M18,146 l800,0" />
        <path id="left-margin-Ultralight-S" d="M170.82,56 l0,110" />
        <path id="right-margin-Ultralight-S" d="M359.18,56 l0,110" />
        <path id="left-margin-Regular-S" d="M370.82,56 l0,110" />
        <path id="right-margin-Regular-S" d="M559.18,56 l0,110" />
        <path id="left-margin-Black-S" d="M570.82,56 l0,110" />
        <path id="right-margin-Black-S" d="M759.18,56 l0,110" />
        <path id="Capline-M" d="M18,276 l800,0" />
        <path id="Baseline-M" d="M18,346 l800,0" />
        <path id="Capline-L" d="M18,476 l800,0" />
        <path id="Baseline-L" d="M18,546 l800,0" />
    </g>
    <g id="Symbols">
        <g id="Ultralight-S">
            <path d="M180.82,110.489 L180.82,144.977 L189.771,144.977 L198.721,144.977 L198.721,110.489 L198.721,76.002 L189.771,76.002 L180.82,76.002 L180.82,110.489 Z" />
            <path d="M203.724,110.489 L203.724,144.977 L211.623,144.977 L219.52,144.977 L219.546,122.783 C219.572,110.594 219.625,100.8 219.678,101.011 C219.731,101.223 221.152,110.936 222.812,122.599 C224.47,134.262 225.892,144.054 225.971,144.371 C226.103,144.975 226.129,144.975 231.632,144.975 C237.134,144.975 237.16,144.975 237.265,144.371 C237.344,144.054 238.186,137.973 239.134,130.892 C240.055,123.783 241.398,113.779 242.082,108.646 L243.346,99.3 L243.425,122.152 L243.479,144.977 L251.324,144.924 L259.143,144.845 L259.143,110.489 L259.143,76.134 L247.507,76.055 L235.844,76.002 L235.712,76.581 C235.658,76.923 234.763,83.82 233.738,91.929 C231.499,109.594 231.764,107.83 231.578,107.33 C231.474,107.119 230.446,100.063 229.261,91.666 C228.075,83.269 227.05,76.318 226.971,76.187 C226.918,76.082 221.652,76.003 215.282,76.003 L203.725,76.003 L203.725,110.489 Z" />
            <path d="M264.276,110.517 L264.276,145.03 L279.229,144.898 C292.155,144.819 294.419,144.74 296.13,144.345 C301.184,143.187 303.948,140.66 305.055,136.21 C305.582,133.999 305.871,126.128 305.845,112.2 C305.845,97.141 305.555,88.744 304.95,86.454 C303.527,81.056 299.526,77.819 293.024,76.818 C289.653,76.292 282.704,76.002 273.438,76.002 L264.276,76.002 L264.276,110.517 Z M286.152,88.534 C287.812,89.376 287.784,89.271 287.916,106.279 C288.021,122.338 287.784,129.419 287.1,131.105 C286.6,132.237 285.522,132.869 283.599,133.053 L282.177,133.211 L282.177,110.491 L282.177,87.771 L283.757,87.929 C284.625,88.034 285.705,88.297 286.152,88.534 Z" />
            <path d="M309.82,110.489 L309.82,144.977 L317.85,144.977 L325.854,144.977 L326.144,143.924 C326.276,143.345 326.539,142.371 326.697,141.792 L326.987,140.686 L327.75,141.634 C328.752,142.845 331.7,144.793 333.383,145.372 C337.517,146.767 342.466,145.793 345.679,142.897 C347.285,141.448 348.101,140.053 348.706,137.736 C349.154,136.051 349.18,134.235 349.18,115.49 L349.18,95.088 L348.469,93.561 C347.02,90.481 344.993,88.795 341.676,87.953 C339.358,87.374 335.673,87.374 333.567,87.979 C331.803,88.479 329.513,89.823 328.013,91.217 C327.539,91.692 327.092,92.059 327.039,92.059 C326.986,92.059 326.934,88.452 326.934,84.03 L326.934,76 L318.379,76 L309.824,76 L309.824,110.489 Z M330.459,97.696 C332.038,98.354 332.038,98.275 332.145,114.834 C332.198,123.285 332.119,130.919 331.987,132.341 C331.75,134.552 331.645,134.894 331.038,135.422 C330.143,136.185 328.985,136.185 328.116,135.422 C326.984,134.448 326.905,132.816 326.984,115.336 C327.063,97.986 327.063,98.144 328.484,97.619 C329.434,97.273 329.46,97.273 330.459,97.696 Z" />
        </g>
        <g id="Regular-S">
            <path d="M380.82,110.489 L380.82,144.977 L389.771,144.977 L398.721,144.977 L398.721,110.489 L398.721,76.002 L389.771,76.002 L380.82,76.002 L380.82,110.489 Z" />
            <path d="M403.724,110.489 L403.724,144.977 L411.623,144.977 L419.52,144.977 L419.546,122.783 C419.572,110.594 419.625,100.8 419.678,101.011 C419.731,101.223 421.152,110.936 422.812,122.599 C424.47,134.262 425.892,144.054 425.971,144.371 C426.103,144.975 426.129,144.975 431.632,144.975 C437.134,144.975 437.16,144.975 437.265,144.371 C437.344,144.054 438.186,137.973 439.134,130.892 C440.055,123.783 441.398,113.779 442.082,108.646 L443.346,99.3 L443.425,122.152 L443.479,144.977 L451.324,144.924 L459.143,144.845 L459.143,110.489 L459.143,76.134 L447.507,76.055 L435.844,76.002 L435.712,76.581 C435.658,76.923 434.763,83.82 433.738,91.929 C431.499,109.594 431.764,107.83 431.578,107.33 C431.474,107.119 430.446,100.063 429.261,91.666 C428.075,83.269 427.05,76.318 426.971,76.187 C426.918,76.082 421.652,76.003 415.282,76.003 L403.725,76.003 L403.725,110.489 Z" />
            <path d="M464.276,110.517 L464.276,145.03 L479.229,144.898 C492.155,144.819 494.419,144.74 496.13,144.345 C501.184,143.187 503.948,140.66 505.055,136.21 C505.582,133.999 505.871,126.128 505.845,112.2 C505.845,97.141 505.555,88.744 504.95,86.454 C503.527,81.056 499.526,77.819 493.024,76.818 C489.653,76.292 482.704,76.002 473.438,76.002 L464.276,76.002 L464.276,110.517 Z M486.152,88.534 C487.812,89.376 487.784,89.271 487.916,106.279 C488.021,122.338 487.784,129.419 487.1,131.105 C486.6,132.237 485.522,132.869 483.599,133.053 L482.177,133.211 L482.177,110.491 L482.177,87.771 L483.757,87.929 C484.625,88.034 485.705,88.297 486.152,88.534 Z" />
            <path d="M509.82,110.489 L509.82,144.977 L517.85,144.977 L525.854,144.977 L526.144,143.924 C526.276,143.345 526.539,142.371 526.697,141.792 L526.987,140.686 L527.75,141.634 C528.752,142.845 531.7,144.793 533.383,145.372 C537.517,146.767 542.466,145.793 545.679,142.897 C547.285,141.448 548.101,140.053 548.706,137.736 C549.154,136.051 549.18,134.235 549.18,115.49 L549.18,95.088 L548.469,93.561 C547.02,90.481 544.993,88.795 541.676,87.953 C539.358,87.374 535.673,87.374 533.567,87.979 C531.803,88.479 529.513,89.823 528.013,91.217 C527.539,91.692 527.092,92.059 527.039,92.059 C526.986,92.059 526.934,88.452 526.934,84.03 L526.934,76 L518.379,76 L509.824,76 L509.824,110.489 Z M530.459,97.696 C532.038,98.354 532.038,98.275 532.145,114.834 C532.198,123.285 532.119,130.919 531.987,132.341 C531.75,134.552 531.645,134.894 531.038,135.422 C530.143,136.185 528.985,136.185 528.116,135.422 C526.984,134.448 526.905,132.816 526.984,115.336 C527.063,97.986 527.063,98.144 528.484,97.619 C529.434,97.273 529.46,97.273 530.459,97.696 Z" />
        </g>
        <g id="Black-S">
            <path d="M580.82,110.489 L580.82,144.977 L589.771,144.977 L598.721,144.977 L598.721,110.489 L598.721,76.002 L589.771,76.002 L580.82,76.002 L580.82,110.489 Z" />
            <path d="M603.724,110.489 L603.724,144.977 L611.623,144.977 L619.52,144.977 L619.546,122.783 C619.572,110.594 619.625,100.8 619.678,101.011 C619.731,101.223 621.152,110.936 622.812,122.599 C624.47,134.262 625.892,144.054 625.971,144.371 C626.103,144.975 626.129,144.975 631.632,144.975 C637.134,144.975 637.16,144.975 637.265,144.371 C637.344,144.054 638.186,137.973 639.134,130.892 C640.055,123.783 641.398,113.779 642.082,108.646 L643.346,99.3 L643.425,122.152 L643.479,144.977 L651.324,144.924 L659.143,144.845 L659.143,110.489 L659.143,76.134 L647.507,76.055 L635.844,76.002 L635.712,76.581 C635.659,76.923 634.763,83.82 633.738,91.929 C631.499,109.594 631.764,107.83 631.578,107.33 C631.474,107.119 630.446,100.063 629.261,91.666 C628.076,83.269 627.05,76.318 626.971,76.187 C626.918,76.082 621.652,76.003 615.282,76.003 L603.725,76.003 L603.725,110.489 Z" />
            <path d="M664.276,110.517 L664.276,145.03 L679.229,144.898 C692.155,144.819 694.419,144.74 696.13,144.345 C701.184,143.187 703.948,140.66 705.055,136.21 C705.582,133.999 705.871,126.128 705.845,112.2 C705.845,97.141 705.555,88.744 704.95,86.454 C703.527,81.056 699.526,77.819 693.024,76.818 C689.653,76.292 682.704,76.002 673.438,76.002 L664.276,76.002 L664.276,110.517 Z M686.152,88.534 C687.812,89.376 687.784,89.271 687.916,106.279 C688.021,122.338 687.784,129.419 687.1,131.105 C686.601,132.237 685.522,132.869 683.599,133.053 L682.177,133.211 L682.177,110.491 L682.177,87.771 L683.757,87.929 C684.625,88.034 685.705,88.297 686.152,88.534 Z" />
            <path d="M709.82,110.489 L709.82,144.977 L717.85,144.977 L725.854,144.977 L726.144,143.924 C726.276,143.345 726.539,142.371 726.697,141.792 L726.988,140.686 L727.75,141.634 C728.752,142.845 731.7,144.793 733.383,145.372 C737.517,146.767 742.466,145.793 745.679,142.897 C747.285,141.448 748.101,140.053 748.706,137.736 C749.154,136.051 749.18,134.235 749.18,115.49 L749.18,95.088 L748.469,93.561 C747.02,90.481 744.993,88.795 741.676,87.953 C739.358,87.374 735.673,87.374 733.567,87.979 C731.803,88.479 729.513,89.823 728.013,91.217 C727.539,91.692 727.092,92.059 727.039,92.059 C726.986,92.059 726.934,88.452 726.934,84.03 L726.934,76 L718.379,76 L709.824,76 L709.824,110.489 Z M730.459,97.696 C732.038,98.354 732.038,98.275 732.145,114.834 C732.198,123.285 732.119,130.919 731.987,132.341 C731.75,134.552 731.645,134.894 731.038,135.422 C730.143,136.185 728.985,136.185 728.116,135.422 C726.984,134.448 726.905,132.816 726.984,115.336 C727.063,97.986 727.063,98.144 728.484,97.619 C729.434,97.273 729.46,97.273 730.459,97.696 Z" />
        </g>
    </g>
</svg>