<?xml version="1.0" encoding="UTF-8"?>
<svg height="600" width="800" xmlns="http://www.w3.org/2000/svg" xmlns:xlink="http://www.w3.org/1999/xlink">
    <g id="Notes" font-family="'LucidaGrande', 'Lucida Grande', sans-serif" font-size="13">
        <rect fill="white" height="600.0" width="800.0" x="0.0" y="0.0" />
        <g font-size="13">
            <text x="18.0" y="176.0">Small</text>
            <text x="18.0" y="376.0">Medium</text>
            <text x="18.0" y="576.0">Large</text>
        </g>
        <g font-size="9">
            <text x="250.0" y="30.0">Ultralight</text>
            <text x="450.0" y="30.0">Regular</text>
            <text x="650.0" y="30.0">Black</text>
            <text id="template-version" fill="#505050" text-anchor="end" x="785.0" y="575.0">Template v.3.0</text>
            <a href="https://github.com/swhitty/SwiftDraw">
                <text fill="#505050" text-anchor="end" x="785.0" y="590.0">https://github.com/swhitty/SwiftDraw</text>
            </a>
        </g>
    </g>
    <g id="Guides" stroke="rgb(39, 170, 225)" stroke-width="0.5">
        <path id="Capline-S" d="M18,76 l800,0" />
        <path id="H-reference" d="M85,145.755 L87.685,145.755 L113.369,79.287 L114.052,79.287 L114.052,76 L112.148,76 L85,145.755 Z M95.693,121.536 L130.996,121.536 L130.263,119.313 L96.474,119.313 L95.693,121.536 Z M139.15,145.755 L141.787,145.755 L114.638,76 L113.466,76 L113.466,79.287 L139.15,145.755 Z" stroke="none" />
        <path id="Baseline-S" d="M18,146 l800,0" />
        <path id="left-margin-Ultralight-S" d="M220.002,56 l0,110" />
        <path id="right-margin-Ultralight-S" d="M309.998,56 l0,110" />
        <path id="left-margin-Regular-S" d="M420.002,56 l0,110" />
        <path id="right-margin-Regular-S" d="M509.998,56 l0,110" />
        <path id="left-margin-Black-S" d="M620.002,56 l0,110" />
        <path id="right-margin-Black-S" d="M709.998,56 l0,110" />
        <path id="Capline-M" d="M18,276 l800,0" />
        <path id="Baseline-M" d="M18,346 l800,0" />
        <path id="Capline-L" d="M18,476 l800,0" />
        <path id="Baseline-L" d="M18,546 l800,0" />
    </g>
    <g id="Symbols">
        <g id="Ultralight-S">
            <path d="M295.269,76 L234.73,76 C232.162,76.17 230.171,78.169 230.005,80.653 L230.002,141.27 C230.173,143.825 232.08,145.77 234.54,145.992 C234.584,145.998 234.628,146 234.671,146 L295.33,146 C295.372,146 295.415,145.998 295.457,145.994 C298.002,145.77 299.998,143.582 299.998,141.011 L299.998,80.987 C299.998,78.387 297.968,76.199 295.378,76.006 C295.342,76.002 295.306,76 295.269,76 Z M295.269,77.447 C297.123,77.583 298.556,79.129 298.551,80.987 L298.551,141.011 C298.551,142.871 297.129,144.395 295.33,144.554 L234.671,144.554 C232.931,144.395 231.567,143.009 231.448,141.27 L231.448,80.749 C231.567,78.971 232.97,77.564 234.73,77.447 L295.269,77.447 Z M243.987,100.093 L243.987,121.57 L238.429,121.57 L238.429,100.093 L243.987,100.093 Z M263.052,100.093 L263.052,121.57 L258.206,121.57 L258.206,107.073 L256.249,121.57 L252.788,121.57 L250.75,107.389 L250.731,121.57 L245.866,121.57 L245.866,100.093 L253.064,100.093 C253.283,101.398 253.5,102.92 253.737,104.682 L254.528,110.14 L255.814,100.093 L263.052,100.093 Z M271.735,103.968 C271.952,104.086 272.091,104.283 272.149,104.562 C272.23,104.84 272.249,105.471 272.249,106.441 L272.249,114.767 C272.249,116.191 272.149,117.062 271.971,117.379 C271.793,117.715 271.299,117.873 270.507,117.873 L270.507,103.77 C271.102,103.77 271.516,103.83 271.735,103.968 Z M271.674,121.57 C272.999,121.57 274.009,121.492 274.662,121.353 C275.334,121.214 275.888,120.957 276.323,120.581 C276.777,120.226 277.093,119.712 277.271,119.059 C277.449,118.406 277.569,117.12 277.569,115.202 L277.569,107.667 C277.569,105.63 277.49,104.264 277.352,103.573 C277.233,102.881 276.935,102.248 276.441,101.695 C275.946,101.12 275.216,100.726 274.266,100.467 C273.335,100.232 271.775,100.093 269.105,100.093 L264.951,100.093 L264.951,121.57 L271.674,121.57 Z M286.666,116.37 C286.666,117.398 286.608,118.051 286.507,118.327 C286.411,118.603 285.954,118.742 285.618,118.742 C285.302,118.742 285.064,118.603 284.966,118.348 C284.846,118.089 284.788,117.477 284.788,116.529 L284.788,110.85 C284.788,109.881 284.846,109.268 284.947,109.031 C285.045,108.795 285.263,108.675 285.58,108.675 C285.916,108.675 286.37,108.795 286.488,109.091 C286.608,109.367 286.666,109.962 286.666,110.85 L286.666,116.37 Z M279.448,100.093 L279.448,121.57 L284.452,121.57 L284.788,120.206 C285.242,120.759 285.736,121.176 286.29,121.452 C286.824,121.709 287.634,121.848 288.268,121.848 C289.157,121.848 289.91,121.629 290.544,121.156 C291.175,120.701 291.59,120.147 291.768,119.515 C291.926,118.881 292.027,117.931 292.027,116.645 L292.027,110.614 C292.027,109.328 291.986,108.478 291.926,108.082 C291.868,107.687 291.71,107.271 291.432,106.856 C291.134,106.441 290.721,106.124 290.186,105.886 C289.651,105.67 289.02,105.55 288.268,105.55 C287.634,105.55 286.824,105.69 286.271,105.925 C285.736,106.184 285.242,106.578 284.788,107.094 L284.788,100.093 L279.448,100.093 Z" />
        </g>
        <g id="Regular-S">
            <path d="M495.269,76 L434.73,76 C432.162,76.17 430.171,78.169 430.005,80.653 L430.002,141.27 C430.173,143.825 432.08,145.77 434.54,145.992 C434.584,145.998 434.628,146 434.671,146 L495.33,146 C495.372,146 495.415,145.998 495.457,145.994 C498.002,145.77 499.998,143.582 499.998,141.011 L499.998,80.987 C499.998,78.387 497.968,76.199 495.378,76.006 C495.342,76.002 495.306,76 495.269,76 Z M495.269,77.447 C497.123,77.583 498.556,79.129 498.551,80.987 L498.551,141.011 C498.551,142.871 497.129,144.395 495.33,144.554 L434.671,144.554 C432.931,144.395 431.567,143.009 431.448,141.27 L431.448,80.749 C431.567,78.971 432.97,77.564 434.73,77.447 L495.269,77.447 Z M443.987,100.093 L443.987,121.57 L438.429,121.57 L438.429,100.093 L443.987,100.093 Z M463.052,100.093 L463.052,121.57 L458.206,121.57 L458.206,107.073 L456.249,121.57 L452.788,121.57 L450.75,107.389 L450.731,121.57 L445.866,121.57 L445.866,100.093 L453.064,100.093 C453.283,101.398 453.5,102.92 453.737,104.682 L454.528,110.14 L455.814,100.093 L463.052,100.093 Z M471.735,103.968 C471.952,104.086 472.091,104.283 472.149,104.562 C472.23,104.84 472.249,105.471 472.249,106.441 L472.249,114.767 C472.249,116.191 472.149,117.062 471.971,117.379 C471.793,117.715 471.299,117.873 470.507,117.873 L470.507,103.77 C471.102,103.77 471.516,103.83 471.735,103.968 Z M471.674,121.57 C472.999,121.57 474.009,121.492 474.662,121.353 C475.334,121.214 475.888,120.957 476.323,120.581 C476.777,120.226 477.093,119.712 477.271,119.059 C477.449,118.406 477.569,117.12 477.569,115.202 L477.569,107.667 C477.569,105.63 477.49,104.264 477.352,103.573 C477.233,102.881 476.935,102.248 476.441,101.695 C475.946,101.12 475.216,100.726 474.266,100.467 C473.335,100.232 471.775,100.093 469.105,100.093 L464.951,100.093 L464.951,121.57 L471.674,121.57 Z M486.666,116.37 C486.666,117.398 486.608,118.051 486.507,118.327 C486.411,118.603 485.954,118.742 485.618,118.742 C485.302,118.742 485.064,118.603 484.966,118.348 C484.846,118.089 484.788,117.477 484.788,116.529 L484.788,110.85 C484.788,109.881 484.846,109.268 484.947,109.031 C485.045,108.795 485.263,108.675 485.58,108.675 C485.916,108.675 486.37,108.795 486.488,109.091 C486.608,109.367 486.666,109.962 486.666,110.85 L486.666,116.37 Z M479.448,100.093 L479.448,121.57 L484.452,121.57 L484.788,120.206 C485.242,120.759 485.736,121.176 486.29,121.452 C486.824,121.709 487.634,121.848 488.268,121.848 C489.157,121.848 489.91,121.629 490.544,121.156 C491.175,120.701 491.59,120.147 491.768,119.515 C491.926,118.881 492.027,117.931 492.027,116.645 L492.027,110.614 C492.027,109.328 491.986,108.478 491.926,108.082 C491.868,107.687 491.71,107.271 491.432,106.856 C491.134,106.441 490.721,106.124 490.186,105.886 C489.651,105.67 489.02,105.55 488.268,105.55 C487.634,105.55 486.824,105.69 486.271,105.925 C485.736,106.184 485.242,106.578 484.788,107.094 L484.788,100.093 L479.448,100.093 Z" />
        </g>
        <g id="Black-S">
            <path d="M695.269,76 L634.73,76 C632.162,76.17 630.171,78.169 630.005,80.653 L630.002,141.27 C630.173,143.825 632.08,145.77 634.54,145.992 C634.584,145.998 634.628,146 634.671,146 L695.329,146 C695.372,146 695.415,145.998 695.457,145.994 C698.002,145.77 699.998,143.582 699.998,141.011 L699.998,80.987 C699.998,78.387 697.968,76.199 695.378,76.006 C695.342,76.002 695.306,76 695.269,76 Z M695.269,77.447 C697.123,77.583 698.555,79.129 698.551,80.987 L698.551,141.011 C698.551,142.871 697.129,144.395 695.33,144.554 L634.671,144.554 C632.931,144.395 631.567,143.009 631.448,141.27 L631.448,80.749 C631.567,78.971 632.97,77.564 634.73,77.447 L695.269,77.447 Z M643.987,100.093 L643.987,121.57 L638.429,121.57 L638.429,100.093 L643.987,100.093 Z M663.052,100.093 L663.052,121.57 L658.206,121.57 L658.206,107.073 L656.249,121.57 L652.788,121.57 L650.75,107.389 L650.731,121.57 L645.866,121.57 L645.866,100.093 L653.064,100.093 C653.283,101.398 653.5,102.92 653.737,104.682 L654.528,110.14 L655.814,100.093 L663.052,100.093 Z M671.735,103.968 C671.952,104.086 672.091,104.283 672.149,104.562 C672.23,104.84 672.249,105.471 672.249,106.441 L672.249,114.767 C672.249,116.191 672.149,117.062 671.971,117.379 C671.793,117.715 671.299,117.873 670.507,117.873 L670.507,103.77 C671.102,103.77 671.516,103.83 671.735,103.968 Z M671.674,121.57 C672.999,121.57 674.009,121.492 674.662,121.353 C675.334,121.214 675.888,120.957 676.323,120.581 C676.777,120.226 677.093,119.712 677.271,119.059 C677.449,118.406 677.569,117.12 677.569,115.202 L677.569,107.667 C677.569,105.63 677.49,104.264 677.352,103.573 C677.233,102.881 676.935,102.248 676.441,101.695 C675.946,101.12 675.216,100.726 674.266,100.467 C673.335,100.232 671.775,100.093 669.105,100.093 L664.951,100.093 L664.951,121.57 L671.674,121.57 Z M686.666,116.37 C686.666,117.398 686.607,118.051 686.507,118.327 C686.411,118.603 685.954,118.742 685.618,118.742 C685.302,118.742 685.064,118.603 684.966,118.348 C684.846,118.089 684.788,117.477 684.788,116.529 L684.788,110.85 C684.788,109.881 684.846,109.268 684.946,109.031 C685.045,108.795 685.263,108.675 685.58,108.675 C685.916,108.675 686.37,108.795 686.488,109.091 C686.607,109.367 686.666,109.962 686.666,110.85 L686.666,116.37 Z M679.448,100.093 L679.448,121.57 L684.452,121.57 L684.788,120.206 C685.242,120.759 685.736,121.176 686.29,121.452 C686.824,121.709 687.634,121.848 688.268,121.848 C689.157,121.848 689.91,121.629 690.544,121.156 C691.175,120.701 691.59,120.147 691.768,119.515 C691.926,118.881 692.027,117.931 692.027,116.645 L692.027,110.614 C692.027,109.328 691.986,108.478 691.926,108.082 C691.868,107.687 691.71,107.271 691.432,106.856 C691.134,106.441 690.721,106.124 690.186,105.886 C689.651,105.67 689.02,105.55 688.268,105.55 C687.634,105.55 686.824,105.69 686.271,105.925 C685.736,106.184 685.242,106.578 684.788,107.094 L684.788,100.093 L679.448,100.093 Z" />
        </g>
    </g>
</svg>