<?xml version="1.0" encoding="UTF-8"?>
<svg height="600" width="800" xmlns="http://www.w3.org/2000/svg" xmlns:xlink="http://www.w3.org/1999/xlink">
    <g id="Notes" font-family="'LucidaGrande', 'Lucida Grande', sans-serif" font-size="13">
        <rect fill="white" height="600.0" width="800.0" x="0.0" y="0.0" />
        <g font-size="13">
            <text x="18.0" y="176.0">Small</text>
            <text x="18.0" y="376.0">Medium</text>
            <text x="18.0" y="576.0">Large</text>
        </g>
        <g font-size="9">
            <text x="250.0" y="30.0">Ultralight</text>
            <text x="450.0" y="30.0">Regular</text>
            <text x="650.0" y="30.0">Black</text>
            <text id="template-version" fill="#505050" text-anchor="end" x="785.0" y="575.0">Template v.3.0</text>
            <a href="https://github.com/swhitty/SwiftDraw">
                <text fill="#505050" text-anchor="end" x="785.0" y="590.0">https://github.com/swhitty/SwiftDraw</text>
            </a>
        </g>
    </g>
    <g id="Guides" stroke="rgb(39, 170, 225)" stroke-width="0.5">
        <path id="Capline-S" d="M18,76 l800,0" />
        <path id="H-reference" d="M85,145.755 L87.685,145.755 L113.369,79.287 L114.052,79.287 L114.052,76 L112.148,76 L85,145.755 Z M95.693,121.536 L130.996,121.536 L130.263,119.313 L96.474,119.313 L95.693,121.536 Z M139.15,145.755 L141.787,145.755 L114.638,76 L113.466,76 L113.466,79.287 L139.15,145.755 Z" stroke="none" />
        <path id="Baseline-S" d="M18,146 l800,0" />
        <path id="left-margin-Ultralight-S" d="M221,56 l0,110" />
        <path id="right-margin-Ultralight-S" d="M309,56 l0,110" />
        <path id="left-margin-Regular-S" d="M421,56 l0,110" />
        <path id="right-margin-Regular-S" d="M509,56 l0,110" />
        <path id="left-margin-Black-S" d="M621,56 l0,110" />
        <path id="right-margin-Black-S" d="M709,56 l0,110" />
        <path id="Capline-M" d="M18,276 l800,0" />
        <path id="Baseline-M" d="M18,346 l800,0" />
        <path id="Capline-L" d="M18,476 l800,0" />
        <path id="Baseline-L" d="M18,546 l800,0" />
    </g>
    <g id="Symbols">
        <g id="Ultralight-S">
            <path d="M231.854,76 L245.916,76 L245.916,97.499 L260.587,76 L277.668,76 L252.856,101.196 L298.158,76 L298.158,91.997 L257.482,107.195 L298.158,103.401 L298.158,118.599 L257.482,114.805 L298.158,130.003 L298.158,146 L252.856,120.804 L277.668,146 L260.574,146 L245.904,124.501 L245.904,146 L231.842,146 L231.842,76 L231.854,76 Z" />
        </g>
        <g id="Regular-S">
            <path d="M431.854,76 L445.916,76 L445.916,97.499 L460.587,76 L477.668,76 L452.856,101.196 L498.158,76 L498.158,91.997 L457.482,107.195 L498.158,103.401 L498.158,118.599 L457.482,114.805 L498.158,130.003 L498.158,146 L452.856,120.804 L477.668,146 L460.574,146 L445.904,124.501 L445.904,146 L431.842,146 L431.842,76 L431.854,76 Z" />
        </g>
        <g id="Black-S">
            <path d="M631.854,76 L645.916,76 L645.916,97.499 L660.587,76 L677.668,76 L652.856,101.196 L698.158,76 L698.158,91.997 L657.482,107.195 L698.158,103.401 L698.158,118.599 L657.482,114.805 L698.158,130.003 L698.158,146 L652.856,120.804 L677.668,146 L660.574,146 L645.904,124.501 L645.904,146 L631.842,146 L631.842,76 L631.854,76 Z" />
        </g>
    </g>
</svg>