<?xml version="1.0" encoding="UTF-8"?>
<svg height="600" width="800" xmlns="http://www.w3.org/2000/svg" xmlns:xlink="http://www.w3.org/1999/xlink">
    <g id="Notes" font-family="'LucidaGrande', 'Lucida Grande', sans-serif" font-size="13">
        <rect fill="white" height="600.0" width="800.0" x="0.0" y="0.0" />
        <g font-size="13">
            <text x="18.0" y="176.0">Small</text>
            <text x="18.0" y="376.0">Medium</text>
            <text x="18.0" y="576.0">Large</text>
        </g>
        <g font-size="9">
            <text x="250.0" y="30.0">Ultralight</text>
            <text x="450.0" y="30.0">Regular</text>
            <text x="650.0" y="30.0">Black</text>
            <text id="template-version" fill="#505050" text-anchor="end" x="785.0" y="575.0">Template v.3.0</text>
            <a href="https://github.com/swhitty/SwiftDraw">
                <text fill="#505050" text-anchor="end" x="785.0" y="590.0">https://github.com/swhitty/SwiftDraw</text>
            </a>
        </g>
    </g>
    <g id="Guides" stroke="rgb(39, 170, 225)" stroke-width="0.5">
        <path id="Capline-S" d="M18,76 l800,0" />
        <path id="H-reference" d="M85,145.755 L87.685,145.755 L113.369,79.287 L114.052,79.287 L114.052,76 L112.148,76 L85,145.755 Z M95.693,121.536 L130.996,121.536 L130.263,119.313 L96.474,119.313 L95.693,121.536 Z M139.15,145.755 L141.787,145.755 L114.638,76 L113.466,76 L113.466,79.287 L139.15,145.755 Z" stroke="none" />
        <path id="Baseline-S" d="M18,146 l800,0" />
        <path id="left-margin-Ultralight-S" d="M220,56 l0,110" />
        <path id="right-margin-Ultralight-S" d="M310,56 l0,110" />
        <path id="left-margin-Regular-S" d="M420,56 l0,110" />
        <path id="right-margin-Regular-S" d="M510,56 l0,110" />
        <path id="left-margin-Black-S" d="M620,56 l0,110" />
        <path id="right-margin-Black-S" d="M710,56 l0,110" />
        <path id="Capline-M" d="M18,276 l800,0" />
        <path id="Baseline-M" d="M18,346 l800,0" />
        <path id="Capline-L" d="M18,476 l800,0" />
        <path id="Baseline-L" d="M18,546 l800,0" />
    </g>
    <g id="Symbols">
        <g id="Ultralight-S">
            <path d="M297.88,122.967 C291.271,141.127 271.192,150.49 253.033,143.88 C234.873,137.271 225.51,117.192 232.12,99.033 C238.729,80.873 258.808,71.51 276.967,78.12 C295.126,84.729 304.49,104.808 297.88,122.967 Z M269.11,112.496 C269.936,110.226 268.766,107.716 266.496,106.89 C264.226,106.064 261.716,107.234 260.89,109.504 C260.064,111.774 261.234,114.284 263.504,115.11 C265.774,115.936 268.284,114.766 269.11,112.496 Z M256.402,121.834 C258.055,117.294 255.714,112.275 251.174,110.622 C246.634,108.97 241.615,111.311 239.962,115.85 C238.31,120.39 240.651,125.41 245.19,127.062 C249.73,128.715 254.75,126.374 256.402,121.834 Z M265.378,97.174 C267.03,92.634 264.69,87.614 260.15,85.962 C255.61,84.309 250.59,86.65 248.938,91.19 C247.285,95.73 249.626,100.75 254.166,102.402 C258.706,104.055 263.726,101.714 265.378,97.174 Z M290.038,106.15 C291.691,101.61 289.35,96.59 284.81,94.938 C280.27,93.285 275.251,95.626 273.598,100.166 C271.946,104.706 274.287,109.725 278.826,111.378 C283.366,113.03 288.386,110.689 290.038,106.15 Z M281.063,130.81 C282.715,126.27 280.374,121.25 275.834,119.598 C271.295,117.945 266.275,120.286 264.622,124.826 C262.97,129.366 265.311,134.386 269.851,136.038 C274.39,137.691 279.41,135.35 281.063,130.81 Z" />
        </g>
        <g id="Regular-S">
            <path d="M497.88,122.967 C491.271,141.127 471.192,150.49 453.033,143.88 C434.874,137.271 425.51,117.192 432.12,99.033 C438.729,80.873 458.808,71.51 476.967,78.12 C495.127,84.729 504.49,104.808 497.88,122.967 Z M469.11,112.496 C469.936,110.226 468.766,107.716 466.496,106.89 C464.226,106.064 461.716,107.234 460.89,109.504 C460.064,111.774 461.234,114.284 463.504,115.11 C465.774,115.936 468.284,114.766 469.11,112.496 Z M456.402,121.834 C458.055,117.294 455.714,112.275 451.174,110.622 C446.634,108.97 441.615,111.311 439.962,115.85 C438.31,120.39 440.651,125.41 445.19,127.062 C449.73,128.715 454.75,126.374 456.402,121.834 Z M465.378,97.174 C467.03,92.634 464.69,87.614 460.15,85.962 C455.61,84.309 450.59,86.65 448.938,91.19 C447.285,95.73 449.626,100.75 454.166,102.402 C458.706,104.055 463.726,101.714 465.378,97.174 Z M490.038,106.15 C491.691,101.61 489.35,96.59 484.81,94.938 C480.27,93.285 475.251,95.626 473.598,100.166 C471.946,104.706 474.287,109.725 478.826,111.378 C483.366,113.03 488.386,110.689 490.038,106.15 Z M481.063,130.81 C482.715,126.27 480.374,121.25 475.834,119.598 C471.295,117.945 466.275,120.286 464.622,124.826 C462.97,129.366 465.311,134.386 469.851,136.038 C474.39,137.691 479.41,135.35 481.063,130.81 Z" />
        </g>
        <g id="Black-S">
            <path d="M697.88,122.967 C691.271,141.127 671.192,150.49 653.033,143.88 C634.873,137.271 625.51,117.192 632.12,99.033 C638.729,80.873 658.808,71.51 676.967,78.12 C695.126,84.729 704.49,104.808 697.88,122.967 Z M669.11,112.496 C669.936,110.226 668.766,107.716 666.496,106.89 C664.226,106.064 661.716,107.234 660.89,109.504 C660.064,111.774 661.234,114.284 663.504,115.11 C665.774,115.936 668.284,114.766 669.11,112.496 Z M656.402,121.834 C658.055,117.294 655.714,112.275 651.174,110.622 C646.634,108.97 641.615,111.311 639.962,115.85 C638.31,120.39 640.651,125.41 645.19,127.062 C649.73,128.715 654.75,126.374 656.402,121.834 Z M665.378,97.174 C667.03,92.634 664.69,87.614 660.15,85.962 C655.61,84.309 650.59,86.65 648.938,91.19 C647.285,95.73 649.626,100.75 654.166,102.402 C658.706,104.055 663.726,101.714 665.378,97.174 Z M690.038,106.15 C691.691,101.61 689.35,96.59 684.81,94.938 C680.27,93.285 675.25,95.626 673.598,100.166 C671.946,104.706 674.287,109.725 678.826,111.378 C683.366,113.03 688.386,110.689 690.038,106.15 Z M681.063,130.81 C682.715,126.27 680.374,121.25 675.834,119.598 C671.295,117.945 666.275,120.286 664.622,124.826 C662.97,129.366 665.311,134.386 669.851,136.038 C674.39,137.691 679.41,135.35 681.063,130.81 Z" />
        </g>
    </g>
</svg>